<?xml version="1.0" encoding="UTF-8"?>
<svg id="Layer_1" data-name="Layer 1" xmlns="http://www.w3.org/2000/svg" viewBox="0 0 453.36 61.78">
  <defs>
    <style>
      .cls-1 {
        fill: #fff;
      }

      .cls-2 {
        fill: #ed5c33;
      }

      .cls-3 {
        fill: none;
        stroke: #ed5c33;
        stroke-miterlimit: 10;
      }
    </style>
  </defs>
  <path class="cls-2" d="m70.35,5.56c-17.93-6.68-30.52.26-34.52,3.02C21.87-.94,2.29,5.26,1.44,5.53l-1.44.47v51.92l2.35-.31c.23-.03,22.84-2.9,32.36,3.33l1.31.84,1.19-1.01c.09-.08,9.49-7.78,32-3.19l2.5.51V6.07l-1.36-.51ZM4.16,53.23V9.09c4.61-1.18,19.29-4.12,29.61,3.13v43.56c-5.72-2.39-13.31-3.02-19.67-3.02-4.11,0-7.71.26-9.94.47Zm63.38-.19c-15.54-2.7-24.99.2-29.61,2.46V12.19c2.84-2.04,13.66-8.57,29.61-3.21v44.05Z"/>
  <g>
    <path class="cls-1" d="m113.73,42.24l9.62-.04v.78c0,2.27.59,4.09,1.78,5.46,1.18,1.37,2.76,2.05,4.74,2.05,2.12,0,3.8-.63,5.03-1.91,1.23-1.27,1.85-2.99,1.85-5.16,0-3.48-2.49-5.97-7.48-7.48-.64-.2-1.15-.36-1.52-.48-4.2-1.31-7.3-3.17-9.33-5.57-2.02-2.41-3.03-5.45-3.03-9.12,0-5.06,1.4-9.12,4.2-12.18,2.8-3.06,6.53-4.59,11.2-4.59,4.37,0,7.85,1.36,10.44,4.09,2.59,2.73,4.03,6.55,4.33,11.46h-9.55v-.44c0-1.73-.52-3.12-1.55-4.18-1.04-1.06-2.39-1.59-4.07-1.59s-3.09.54-4.09,1.63c-1,1.09-1.5,2.57-1.5,4.44,0,.79.1,1.49.31,2.09.21.6.54,1.15.98,1.65,1.01,1.11,3.18,2.13,6.51,3.07,1.48.4,2.62.73,3.4,1,3.7,1.26,6.43,3.06,8.2,5.4,1.76,2.34,2.65,5.34,2.65,8.99,0,5.55-1.54,10.01-4.63,13.38s-7.18,5.05-12.29,5.05c-4.81,0-8.7-1.63-11.66-4.89-2.96-3.26-4.48-7.56-4.55-12.92Z"/>
    <path class="cls-1" d="m184.75,32.73c-1.14-2.12-2.58-3.71-4.35-4.77-1.76-1.06-3.86-1.59-6.27-1.59-3.21,0-5.89,1.16-8.05,3.48-2.16,2.32-3.24,5.23-3.24,8.73s1.1,6.33,3.31,8.62c2.21,2.29,4.98,3.44,8.31,3.44,2.57,0,4.7-.55,6.4-1.65,1.7-1.1,2.97-2.74,3.81-4.94h10.1c-1.23,4.98-3.64,8.9-7.22,11.73-3.58,2.84-7.92,4.26-13.03,4.26-3.01,0-5.8-.54-8.37-1.61s-4.89-2.66-6.96-4.76c-1.92-1.97-3.43-4.29-4.52-6.94-1.09-2.65-1.63-5.35-1.63-8.09s.49-5.54,1.48-8.03c.99-2.49,2.44-4.74,4.37-6.74,2.12-2.24,4.52-3.95,7.18-5.11,2.66-1.16,5.53-1.74,8.59-1.74,4.98,0,9.3,1.42,12.95,4.26,3.65,2.84,6.06,6.65,7.22,11.44h-10.1Z"/>
    <path class="cls-1" d="m210.7,5.08v17.8c1.38-1.85,2.97-3.22,4.76-4.11,1.79-.89,3.83-1.33,6.13-1.33,5.08,0,8.98,1.56,11.7,4.68,2.71,3.12,4.07,7.62,4.07,13.49v23.35h-9.48v-17.95c0-5.58-.62-9.36-1.87-11.34-1.25-1.99-3.42-2.98-6.53-2.98s-5.43,1.12-6.81,3.35c-1.38,2.23-2.07,6.06-2.07,11.49v17.43h-9.14V5.08h9.25Z"/>
    <path class="cls-1" d="m243.12,38.43c0-2.86.52-5.58,1.57-8.16,1.05-2.58,2.57-4.87,4.57-6.87s4.35-3.62,6.92-4.72c2.57-1.1,5.23-1.65,7.99-1.65,2.94,0,5.64.49,8.12,1.46,2.48.98,4.76,2.44,6.83,4.39,2.12,2.05,3.76,4.41,4.92,7.09,1.16,2.68,1.74,5.42,1.74,8.24,0,3.11-.51,5.95-1.52,8.51-1.01,2.57-2.53,4.89-4.55,6.96-2.02,2.1-4.33,3.68-6.92,4.76s-5.4,1.61-8.44,1.61-5.85-.54-8.36-1.63c-2.52-1.09-4.81-2.71-6.88-4.89-1.97-2.12-3.47-4.46-4.48-7.01-1.01-2.55-1.52-5.25-1.52-8.09Zm9.77-.07c0,3.78,1.04,6.77,3.11,8.98,2.07,2.21,4.89,3.31,8.44,3.31s6.3-1.13,8.38-3.39c2.08-2.26,3.13-5.3,3.13-9.12,0-3.43-1.09-6.25-3.28-8.46-2.18-2.21-4.93-3.31-8.24-3.31s-6.18,1.12-8.33,3.35c-2.15,2.23-3.22,5.11-3.22,8.64Z"/>
    <path class="cls-1" d="m292.79,58.97V5.08h9.25v53.89h-9.25Z"/>
    <path class="cls-1" d="m341.84,58.97v-5c-1.14,2.02-2.73,3.52-4.79,4.48-2.06.96-4.69,1.44-7.9,1.44-6.02,0-11.05-2.05-15.08-6.16-4.03-4.11-6.05-9.21-6.05-15.3,0-2.86.51-5.58,1.52-8.14,1.01-2.57,2.45-4.82,4.33-6.77,2.02-2.15,4.27-3.73,6.74-4.76s5.24-1.54,8.33-1.54,5.51.49,7.64,1.48c2.13.99,3.85,2.48,5.16,4.48v-4.92h9.25v40.71h-9.14Zm-24.13-20.69c0,3.43,1.14,6.3,3.42,8.61,2.28,2.31,5.06,3.46,8.35,3.46,2.99,0,5.61-1.16,7.88-3.48,2.27-2.32,3.41-5.03,3.41-8.14,0-3.31-1.14-6.15-3.42-8.53-2.28-2.38-4.95-3.57-8.01-3.57s-5.95,1.13-8.22,3.39c-2.27,2.26-3.41,5.02-3.41,8.27Z"/>
    <path class="cls-1" d="m379.29,26.51c-3.68.3-6.24,1.26-7.7,2.89-1.46,1.63-2.18,4.57-2.18,8.81v20.76h-9.48V18.26h8.88v4.7c1.43-1.83,3-3.16,4.7-4.02,1.7-.85,3.63-1.28,5.77-1.28v8.85Z"/>
    <polygon class="cls-1" points="385.14 58.97 385.14 18.26 389.77 20.66 394.4 18.26 394.4 58.97 385.14 58.97"/>
    <path class="cls-1" d="m410.02,45.46v.56c0,1.8.46,3.26,1.37,4.39.91,1.12,2.1,1.68,3.55,1.68s2.51-.42,3.39-1.26c.88-.84,1.31-1.91,1.31-3.22,0-1.21-.32-2.2-.96-2.98-.64-.78-1.79-1.56-3.44-2.35-.94-.42-2.32-1-4.15-1.74-1.83-.74-3-1.32-3.52-1.74-1.51-1.23-2.62-2.61-3.33-4.13-.72-1.52-1.07-3.25-1.07-5.2,0-3.43,1.2-6.33,3.61-8.7s5.32-3.55,8.75-3.55c3.63,0,6.5,1.05,8.61,3.15,2.11,2.1,3.26,5.03,3.46,8.81h-8.51v-.22c0-1.31-.34-2.33-1.02-3.07s-1.62-1.11-2.83-1.11c-1.06,0-1.94.36-2.65,1.09-.7.73-1.06,1.63-1.06,2.72,0,1.78,1.83,3.43,5.48,4.96.96.4,1.7.7,2.22.93,3.5,1.58,5.9,3.28,7.18,5.09,1.28,1.81,1.92,4.26,1.92,7.35,0,3.8-1.28,6.94-3.85,9.42-2.57,2.48-5.8,3.72-9.7,3.72s-7.09-1.31-9.49-3.92c-2.41-2.62-3.72-6.16-3.94-10.62l8.66-.04Z"/>
    <path class="cls-1" d="m437.63,58.97V26.69h-6.22v-8.44h6.22V5.08h9.48v13.18h6.26v8.44h-6.26v32.28h-9.48Z"/>
  </g>
  <line class="cls-3" x1="95.4" x2="95.4" y2="61.78"/>
  <polygon class="cls-2" points="402.46 6.41 389.92 0 377.08 6.72 389.62 13.13 401.24 7.05 401.24 20.66 402.46 20.66 402.46 6.41 402.46 6.41 402.46 6.41"/>
</svg>